<svg xmlns="http://www.w3.org/2000/svg" viewBox="0 0 24 24" fill="#6366f1">
  <path d="M4.5 8.55c0 1.52 1.27 2.75 2.84 2.75h9.32c1.57 0 2.84-1.23 2.84-2.75C19.5 7.03 18.23 5.8 16.66 5.8H7.34C5.77 5.8 4.5 7.03 4.5 8.55zM2.85 3.55C1.83 3.55 1 4.33 1 5.3v12.9c0 .97.83 1.75 1.85 1.75h1.85c1.02 0 1.85-.78 1.85-1.75V12.6l4.1 3.75c.36.33.93.33 1.29 0l4.1-3.75v5.6c0 .97.83 1.75 1.85 1.75h1.85c1.02 0 1.85-.78 1.85-1.75V5.3c0-.97-.83-1.75-1.85-1.75h-1.85c-1.02 0-1.85.78-1.85 1.75v5.6l-4.1-3.75a.99.99 0 0 0-1.29 0L5.7 11.35V5.3c0-.97-.83-1.75-1.85-1.75H2.85z"/>
</svg>
